<?xml version="1.0" encoding="UTF-8" standalone="no"?>
<!-- Created with Inkscape (http://www.inkscape.org/) -->

<svg
   xmlns:dc="http://purl.org/dc/elements/1.1/"
   xmlns:cc="http://creativecommons.org/ns#"
   xmlns:rdf="http://www.w3.org/1999/02/22-rdf-syntax-ns#"
   xmlns:svg="http://www.w3.org/2000/svg"
   xmlns="http://www.w3.org/2000/svg"
   xmlns:sodipodi="http://sodipodi.sourceforge.net/DTD/sodipodi-0.dtd"
   xmlns:inkscape="http://www.inkscape.org/namespaces/inkscape"
   width="524.28571"
   height="524.28571"
   id="svg2937"
   version="1.1"
   inkscape:version="0.47pre3 r22311"
   sodipodi:docname="human-insignia.svg">
  <defs
     id="defs2939">
    <inkscape:perspective
       sodipodi:type="inkscape:persp3d"
       inkscape:vp_x="0 : 526.18109 : 1"
       inkscape:vp_y="0 : 1000 : 0"
       inkscape:vp_z="744.09448 : 526.18109 : 1"
       inkscape:persp3d-origin="372.04724 : 350.78739 : 1"
       id="perspective2945" />
  </defs>
  <sodipodi:namedview
     id="base"
     pagecolor="#ffffff"
     bordercolor="#666666"
     borderopacity="1.0"
     inkscape:pageopacity="0.0"
     inkscape:pageshadow="2"
     inkscape:zoom="0.49497475"
     inkscape:cx="241.28707"
     inkscape:cy="298.1969"
     inkscape:document-units="px"
     inkscape:current-layer="layer1"
     showgrid="false"
     showguides="true"
     inkscape:guide-bbox="true"
     inkscape:window-width="987"
     inkscape:window-height="724"
     inkscape:window-x="659"
     inkscape:window-y="222"
     inkscape:window-maximized="0" />
  <metadata
     id="metadata2942">
    <rdf:RDF>
      <cc:Work
         rdf:about="">
        <dc:format>image/svg+xml</dc:format>
        <dc:type
           rdf:resource="http://purl.org/dc/dcmitype/StillImage" />
        <dc:title></dc:title>
      </cc:Work>
    </rdf:RDF>
  </metadata>
  <g
     inkscape:label="Layer 1"
     inkscape:groupmode="layer"
     id="layer1"
     transform="translate(56.285714,-117.50503)">
    <path
       sodipodi:type="arc"
       style="fill:#000000;fill-opacity:1;stroke:none"
       id="path3770"
       sodipodi:cx="207.85715"
       sodipodi:cy="391.64789"
       sodipodi:rx="237.85715"
       sodipodi:ry="237.85715"
       d="m 445.71429,391.64789 c 0,131.36487 -106.49227,237.85715 -237.85714,237.85715 C 76.492272,629.50504 -30,523.01276 -30,391.64789 -30,260.28301 76.492272,153.79074 207.85715,153.79074 c 131.36487,0 237.85714,106.49227 237.85714,237.85715 z"
       transform="matrix(1.1021021,0,0,1.1021021,-23.222651,-51.988072)" />
    <path
       transform="matrix(3.00566,0,0,3.00566,-670.10006,-961.25158)"
       d="m 335.37065,418.49146 c 0,24.26829 -19.67334,43.94163 -43.94163,43.94163 -24.2683,0 -43.94164,-19.67334 -43.94164,-43.94163 0,-24.2683 19.67334,-43.94164 43.94164,-43.94164 24.26829,0 43.94163,19.67334 43.94163,43.94164 z"
       sodipodi:ry="43.941635"
       sodipodi:rx="43.941635"
       sodipodi:cy="418.49146"
       sodipodi:cx="291.42902"
       id="path3734"
       style="fill:none;stroke:#ffffff;stroke-width:9.98116875;stroke-miterlimit:4;stroke-opacity:1;stroke-dasharray:none"
       sodipodi:type="arc" />
    <path
       sodipodi:type="arc"
       style="fill:none;stroke:#ffffff;stroke-width:9.98116875;stroke-miterlimit:4;stroke-opacity:1;stroke-dasharray:none"
       id="path3764"
       sodipodi:cx="291.42902"
       sodipodi:cy="418.49146"
       sodipodi:rx="43.941635"
       sodipodi:ry="43.941635"
       d="m 335.37065,418.49146 c 0,24.26829 -19.67334,43.94163 -43.94163,43.94163 -24.2683,0 -43.94164,-19.67334 -43.94164,-43.94163 0,-24.2683 19.67334,-43.94164 43.94164,-43.94164 24.26829,0 43.94163,19.67334 43.94163,43.94164 z"
       transform="matrix(3.00566,0,0,3.00566,-670.10006,-793.25158)" />
    <path
       transform="matrix(3.00566,0,0,3.00566,-754.10006,-878.68015)"
       d="m 335.37065,418.49146 c 0,24.26829 -19.67334,43.94163 -43.94163,43.94163 -24.2683,0 -43.94164,-19.67334 -43.94164,-43.94163 0,-24.2683 19.67334,-43.94164 43.94164,-43.94164 24.26829,0 43.94163,19.67334 43.94163,43.94164 z"
       sodipodi:ry="43.941635"
       sodipodi:rx="43.941635"
       sodipodi:cy="418.49146"
       sodipodi:cx="291.42902"
       id="path3766"
       style="fill:none;stroke:#ffffff;stroke-width:9.98116875;stroke-miterlimit:4;stroke-opacity:1;stroke-dasharray:none"
       sodipodi:type="arc" />
    <path
       sodipodi:type="arc"
       style="fill:none;stroke:#ffffff;stroke-width:9.98116875;stroke-miterlimit:4;stroke-opacity:1;stroke-dasharray:none"
       id="path3768"
       sodipodi:cx="291.42902"
       sodipodi:cy="418.49146"
       sodipodi:rx="43.941635"
       sodipodi:ry="43.941635"
       d="m 335.37065,418.49146 c 0,24.26829 -19.67334,43.94163 -43.94163,43.94163 -24.2683,0 -43.94164,-19.67334 -43.94164,-43.94163 0,-24.2683 19.67334,-43.94164 43.94164,-43.94164 24.26829,0 43.94163,19.67334 43.94163,43.94164 z"
       transform="matrix(3.00566,0,0,3.00566,-588.9572,-878.68015)" />
  </g>
</svg>
